<svg version="1.0" xmlns="http://www.w3.org/2000/svg"
 width="400.000000pt" height="330.000000pt" viewBox="0 0 400.000000 330.000000"
 preserveAspectRatio="xMidYMid meet">

<g transform="translate(0.000000,330.000000) scale(0.100000,-0.100000)"
fill="#000000" stroke="none">
<path d="M1735 3220 c-14 -6 5 -9 58 -9 45 -1 77 3 77 9 0 12 -107 12 -135 0z"/>
<path d="M2150 3181 c21 -17 22 -21 7 -21 -11 0 -18 -7 -16 -17 3 -34 -1 -42
-28 -57 -17 -9 -22 -15 -12 -16 8 0 24 -8 35 -19 11 -10 31 -24 45 -31 21 -11
20 -9 -8 21 -27 29 -29 36 -17 47 8 7 14 9 14 5 0 -4 4 -3 8 4 8 13 52 6 52
-8 0 -5 10 -9 23 -9 21 1 21 1 3 15 -10 8 -24 25 -30 37 -6 13 -32 33 -56 46
-40 21 -42 22 -20 3z"/>
<path d="M1955 3170 c3 -5 12 -7 20 -3 21 7 19 13 -6 13 -11 0 -18 -4 -14 -10z"/>
<path d="M1717 3151 c-16 -6 -16 -9 7 -30 26 -25 56 -23 56 4 0 8 1 18 3 21 3
9 -45 13 -66 5z"/>
<path d="M966 3124 c-5 -14 -4 -15 9 -4 17 14 19 20 6 20 -5 0 -12 -7 -15 -16z"/>
<path d="M1562 3121 c-69 -24 -75 -31 -53 -60 17 -23 21 -23 50 -11 25 10 29
15 20 26 -8 10 -8 14 -1 14 6 0 23 11 38 25 32 30 19 31 -54 6z"/>
<path d="M1905 3090 c-46 -8 -155 -53 -155 -65 0 -3 7 -17 16 -30 10 -15 12
-25 5 -25 -6 0 -11 4 -11 9 0 12 -29 41 -41 41 -5 0 -9 -9 -9 -20 0 -11 -4
-20 -10 -20 -5 0 -10 5 -10 11 0 6 -10 9 -22 7 -13 -2 -22 -9 -20 -16 1 -8 -5
-11 -21 -7 -30 8 -114 -28 -153 -66 l-31 -30 18 -52 c24 -70 12 -83 -16 -17
-13 31 -25 48 -29 41 -4 -6 4 -35 17 -64 27 -59 44 -133 29 -123 -5 3 -22 41
-38 85 l-28 80 -19 -32 c-11 -18 -22 -34 -26 -37 -3 -3 -19 -19 -34 -36 l-28
-31 15 -61 c19 -73 20 -105 4 -100 -7 3 -18 27 -24 54 -12 54 -27 95 -20 54
15 -83 17 -104 8 -90 -5 8 -12 32 -16 53 -4 22 -11 35 -18 31 -5 -4 -7 -20 -4
-38 4 -19 3 -26 -3 -17 -12 19 -14 14 -82 -180 -32 -94 -62 -175 -65 -180 -3
-5 -16 -49 -30 -97 -25 -92 -25 -144 2 -209 8 -18 14 -53 14 -78 0 -25 9 -83
21 -129 l21 -83 121 -69 c218 -123 442 -254 442 -259 0 -2 -21 -18 -47 -34
-26 -17 -57 -48 -70 -70 -25 -45 -54 -65 -45 -32 7 30 -14 16 -50 -33 -31 -42
-33 -43 -73 -36 -22 4 -42 9 -43 11 -2 2 -9 16 -17 32 -7 15 -17 27 -22 27 -4
0 3 -17 17 -38 31 -45 39 -62 33 -67 -2 -2 -34 7 -71 20 l-68 25 28 -36 27
-36 65 6 c35 3 68 11 72 17 4 7 19 13 33 15 33 3 35 -22 4 -62 -20 -25 -23
-40 -22 -114 1 -71 6 -96 30 -150 20 -45 25 -65 16 -68 -7 -2 -12 -8 -12 -13
0 -6 5 -7 10 -4 16 10 25 -25 12 -46 -21 -33 -14 -86 13 -113 14 -14 25 -29
25 -33 0 -5 14 -19 30 -33 17 -14 30 -33 30 -43 0 -10 5 -15 10 -12 6 3 10 2
10 -3 0 -5 8 -13 18 -16 9 -3 42 -20 72 -36 30 -16 63 -30 73 -30 20 0 23 -16
5 -23 -25 -8 68 -27 137 -27 173 0 296 67 425 233 l52 67 102 -2 c55 -2 154 1
219 6 l118 9 42 -41 c39 -39 46 -42 87 -38 38 4 49 0 82 -28 40 -35 134 -86
158 -86 8 0 23 -7 34 -15 16 -12 12 -13 -34 -9 -29 3 -57 7 -62 10 -4 3 -8 1
-8 -4 0 -12 37 -27 115 -47 67 -18 189 -21 226 -6 35 13 69 49 69 71 0 12 22
34 63 61 34 23 75 54 90 68 34 31 72 102 81 151 5 27 4 30 -4 15 -7 -14 -8 13
-4 85 9 192 6 252 -16 305 -4 11 -15 40 -24 65 -16 45 -77 120 -97 120 -5 0
-7 5 -4 10 11 19 -44 10 -97 -15 -29 -13 -70 -27 -90 -30 -28 -4 -48 -18 -81
-55 -50 -55 -62 -61 -54 -28 6 22 5 22 -8 5 -7 -11 -27 -20 -44 -21 -24 -2
-32 3 -38 20 -8 22 -8 22 -31 4 l-23 -19 21 -38 c11 -21 20 -44 20 -52 0 -9 7
-11 23 -7 12 3 30 6 40 6 12 0 17 8 17 30 0 21 5 30 16 30 9 0 31 13 50 29 28
25 40 29 76 26 24 -2 37 -1 30 4 -21 13 57 29 97 20 39 -8 96 -62 105 -99 6
-23 5 -24 -6 -6 -45 68 -100 88 -163 59 -69 -31 -185 -111 -131 -90 17 7 54
-18 44 -29 -4 -4 -14 -2 -22 5 -10 9 -27 8 -72 -4 -76 -20 -89 -19 -112 5 -19
20 -19 20 -47 -6 -28 -26 -28 -26 -4 -20 23 7 24 7 4 -9 -14 -11 -30 -14 -53
-10 -26 5 -32 3 -26 -6 5 -9 2 -10 -12 -5 -21 9 -26 9 -101 7 -32 0 -53 -6
-53 -12 0 -8 18 -10 55 -7 30 3 52 2 50 -2 -2 -3 5 -21 16 -39 16 -27 18 -38
9 -71 -6 -22 -15 -42 -21 -46 -15 -9 -93 23 -114 46 -10 11 -20 42 -23 69 -4
48 -12 55 -40 37 -7 -4 -15 -6 -18 -3 -5 5 115 87 127 87 4 0 14 -9 22 -20 11
-16 22 -18 62 -15 28 2 51 9 53 14 2 6 8 11 14 11 18 0 38 28 32 47 -4 13 -1
12 14 -6 19 -24 42 -22 42 4 0 7 -6 20 -13 27 -25 24 -38 58 -32 79 6 18 4 19
-13 10 -11 -6 -22 -17 -25 -25 -3 -8 -22 -16 -44 -18 l-38 -3 35 -16 c19 -9
37 -12 38 -7 6 14 22 9 22 -7 0 -17 -40 -21 -55 -6 -6 5 -24 12 -41 15 -32 7
-115 -30 -214 -97 l-45 -30 40 42 c22 24 72 62 112 85 48 29 69 46 62 53 -12
12 1 50 27 78 11 11 44 31 74 45 67 29 80 39 80 56 0 9 -10 11 -37 7 l-38 -6
22 22 c12 11 27 21 32 21 5 0 12 4 15 9 7 10 -44 5 -88 -9 -56 -19 -50 -9 9
15 64 26 96 55 91 83 -2 9 -7 36 -11 59 -8 52 -26 59 -81 32 -50 -24 -73 -53
-115 -144 -32 -72 -50 -81 -74 -35 -8 16 -21 27 -28 24 -7 -2 -22 4 -32 13
-22 20 -77 57 -85 58 -3 0 -18 9 -33 20 -73 52 -98 75 -85 75 29 0 153 -69
206 -114 30 -26 61 -46 70 -45 14 0 13 2 -3 9 -11 4 -33 22 -49 39 -24 25 -29
39 -28 73 1 24 -5 56 -13 72 -8 15 -16 56 -16 90 -1 33 -4 73 -8 88 l-6 27
-35 -37 c-20 -20 -54 -59 -75 -87 -22 -27 -47 -57 -55 -66 -8 -8 -46 -50 -83
-93 -60 -66 -170 -155 -194 -156 -13 -1 -45 -50 -33 -50 16 0 74 31 82 44 4 6
10 7 14 4 12 -13 -52 -66 -93 -77 -22 -6 -52 -20 -65 -31 l-25 -19 -48 34
c-36 25 -67 37 -119 46 -39 6 -75 14 -80 16 -14 9 17 23 50 23 41 0 146 87
225 188 33 42 102 124 152 181 51 57 117 132 147 166 30 34 63 76 72 92 17 29
17 31 -3 52 l-21 22 21 6 c12 3 21 12 21 20 0 8 -4 11 -10 8 -6 -4 -10 18 -10
59 0 39 -4 66 -10 66 -7 0 -7 6 0 19 14 27 11 98 -5 141 -13 34 -14 32 -16
-55 -1 -49 -1 -121 0 -158 l3 -68 -37 18 c-29 14 -35 21 -30 38 18 55 17 65 0
65 -17 0 -17 1 1 21 14 15 19 36 19 77 0 38 5 61 15 70 8 8 9 11 3 7 -8 -4
-13 0 -13 10 0 10 5 13 12 9 7 -5 8 -3 4 5 -5 7 -5 32 -1 56 5 34 10 43 21 38
9 -3 20 -15 24 -27 7 -18 9 -16 10 14 2 32 3 33 10 10 11 -36 12 -5 0 64 -5
33 -8 62 -6 64 2 2 23 -24 46 -58 58 -86 62 -67 6 24 -71 113 -87 120 -66 31
14 -60 -4 -65 -39 -10 -22 34 -28 52 -21 61 19 22 -11 62 -109 143 -53 44
-112 96 -130 115 -19 20 -41 36 -49 36 -8 0 -68 29 -133 65 -66 36 -125 64
-132 64 -7 -1 -34 -5 -62 -9z m34 -95 c11 -19 17 -35 13 -35 -6 0 -39 47 -51
74 -10 23 19 -8 38 -39z m-79 11 c0 -11 -19 -15 -25 -6 -3 5 1 10 9 10 9 0 16
-2 16 -4z m170 -37 c14 -25 13 -29 -5 -22 -9 3 -13 8 -10 11 3 3 -3 14 -12 24
-16 18 -16 18 0 12 10 -3 22 -15 27 -25z m-153 5 c-3 -3 -12 -4 -19 -1 -8 3
-5 6 6 6 11 1 17 -2 13 -5z m-339 -111 c50 -100 72 -172 77 -259 6 -103 3 -98
-50 66 -20 63 -47 137 -60 165 -18 37 -21 51 -12 57 20 13 26 9 45 -29z m202
-54 c0 -5 -9 -9 -20 -9 -22 0 -27 16 -7 23 15 5 27 -1 27 -14z m-72 -46 c16
-54 24 -143 14 -143 -7 0 -41 94 -60 168 -2 6 5 12 16 12 13 0 22 -11 30 -37z
m327 3 c16 -38 31 -184 16 -151 -5 11 -21 52 -36 90 -15 39 -29 76 -32 83 -3
7 3 12 16 12 15 0 26 -10 36 -34z m-97 -3 c6 -16 14 -59 17 -98 5 -55 4 -67
-6 -58 -10 10 -37 128 -38 171 -1 22 16 13 27 -15z m205 -50 c35 -75 61 -203
40 -203 -4 0 -28 57 -52 128 -24 70 -46 133 -49 140 -2 6 2 12 10 12 8 0 30
-35 51 -77z m-328 -1 c6 -29 13 -51 15 -48 3 2 3 -16 1 -41 -4 -55 -10 -49
-45 49 -28 78 -27 102 2 96 12 -2 20 -20 27 -56z m478 13 c27 -47 47 -126 46
-178 0 -26 -8 -13 -38 63 -44 107 -57 160 -43 160 6 0 22 -20 35 -45z m130
-30 c56 -110 42 -129 -16 -21 -26 48 -47 90 -47 92 0 2 6 4 13 4 7 0 29 -34
50 -75z m-203 23 c21 -50 38 -159 22 -143 -11 10 -52 148 -52 172 0 24 11 13
30 -29z m-795 -52 c19 -101 20 -147 1 -140 -8 3 -16 14 -19 25 -3 11 -1 16 5
13 10 -6 2 53 -13 93 -7 20 -1 98 8 90 2 -2 10 -39 18 -81z m1088 11 c39 -72
52 -107 40 -107 -10 0 -93 153 -93 171 0 20 19 -2 53 -64z m-1037 -82 c28 -84
28 -102 1 -92 -9 3 -19 34 -26 82 -18 126 -13 128 25 10z m118 -4 c19 -66 21
-134 4 -129 -14 5 -37 104 -38 163 0 50 13 37 34 -34z m429 -71 c9 -36 19 -95
23 -132 4 -38 9 -68 12 -68 3 0 19 12 34 27 24 23 28 34 28 85 0 33 4 57 9 54
16 -10 45 -176 33 -188 -18 -18 -42 -1 -42 29 l-1 28 -30 -35 c-16 -19 -41
-46 -55 -61 -24 -24 -25 -59 -3 -59 5 0 9 -5 9 -11 0 -6 -7 -8 -15 -5 -10 4
-19 -3 -25 -18 -5 -13 -14 -27 -20 -31 -8 -5 -8 -11 1 -21 6 -8 10 -14 8 -15
-2 0 -14 -2 -26 -3 -13 -2 -24 -5 -26 -7 -62 -82 -105 -123 -91 -85 3 8 1 17
-4 20 -5 3 -13 -4 -16 -17 -6 -19 -8 -20 -14 -5 -7 16 -9 15 -26 -7 -21 -29
-38 -33 -34 -9 2 10 -3 19 -9 21 -7 3 -13 0 -13 -6 0 -23 -18 -10 -23 17 -3
15 -8 36 -11 47 -4 11 0 7 7 -9 9 -17 16 -24 19 -16 2 8 27 14 63 17 32 2 68
9 79 15 19 10 20 10 7 -6 -8 -9 -12 -19 -9 -22 7 -6 68 44 68 56 0 16 -33 20
-50 5 -9 -8 -19 -12 -23 -9 -3 4 -19 2 -36 -4 -36 -13 -71 -5 -71 15 0 11 -7
13 -25 9 -37 -9 -30 1 17 25 23 12 57 21 77 20 20 -1 50 -3 66 -4 17 -1 37
-11 47 -22 19 -23 17 -24 52 32 32 52 32 54 2 40 -13 -7 -22 -15 -20 -19 3 -5
0 -8 -5 -8 -22 0 -10 22 35 68 33 33 42 48 32 50 -17 3 -23 45 -34 212 -6 107
4 111 29 10z m-233 23 c19 -71 42 -212 37 -228 -7 -17 -42 -20 -52 -5 -10 17
-15 270 -5 270 5 0 14 -17 20 -37z m108 -134 c4 -97 3 -109 -12 -109 -14 0
-16 16 -16 128 1 159 20 146 28 -19z m505 68 c9 -30 20 -82 23 -116 4 -37 10
-57 15 -50 4 7 5 17 3 21 -3 4 2 8 10 8 8 0 18 4 21 10 3 5 0 7 -8 4 -21 -8
-30 12 -17 36 13 25 32 26 28 3 -2 -10 3 -17 9 -16 9 2 12 -10 11 -36 -1 -39
-1 -40 -51 -46 -27 -4 -52 -3 -57 1 -10 11 -20 234 -11 234 4 0 15 -24 24 -53z
m-69 -69 c23 -96 22 -120 -6 -116 -22 3 -23 8 -26 103 -3 112 6 116 32 13z
m-88 -11 c0 -40 4 -80 8 -89 6 -13 4 -18 -7 -18 -25 0 -28 13 -21 104 8 102
18 104 20 3z m283 8 c0 -37 -3 -45 -9 -30 -12 29 -12 114 0 95 5 -8 9 -37 9
-65z m-561 -37 c3 -42 1 -68 -5 -68 -13 0 -23 58 -23 125 1 74 22 31 28 -57z
m-342 45 c22 -29 18 -49 -6 -28 -19 17 -27 45 -14 45 4 0 13 -8 20 -17z m100
-89 c-3 -8 -10 -14 -16 -14 -11 0 -14 73 -3 84 10 9 26 -52 19 -70z m774 -140
c0 -21 -4 -33 -10 -29 -5 3 -10 19 -10 36 0 16 5 29 10 29 6 0 10 -16 10 -36z
m-340 -16 c0 -28 -18 -58 -35 -58 -11 0 -15 11 -15 38 0 21 3 41 6 44 12 12
44 -5 44 -24z m171 14 c-7 -2 -18 1 -23 6 -8 8 -4 9 13 5 13 -4 18 -8 10 -11z
m-73 -4 c-7 -20 -48 -23 -48 -4 0 11 9 16 26 16 16 0 24 -5 22 -12z m152 2 c0
-5 -2 -10 -4 -10 -3 0 -8 5 -11 10 -3 6 -1 10 4 10 6 0 11 -4 11 -10z m-472
-147 l-21 -38 38 35 c28 26 35 30 26 12 -7 -12 -27 -37 -45 -56 -19 -18 -37
-43 -41 -55 -5 -17 -10 -19 -25 -11 -14 8 -19 5 -23 -12 -4 -12 -5 -23 -4 -24
1 -1 23 4 49 11 59 15 69 9 58 -35 -7 -32 -11 -29 -14 10 -2 18 -24 18 -87 0
-43 -12 -49 -12 -83 9 -46 29 -46 46 0 49 52 4 76 19 128 85 54 65 76 75 44
20z m-368 17 c8 -5 11 -10 5 -11 -5 0 -1 -4 10 -8 13 -5 -3 -10 -50 -14 -87
-7 -178 -40 -205 -74 -15 -19 -20 -21 -20 -9 0 17 67 70 110 88 20 9 111 34
130 37 3 0 12 -4 20 -9z m620 -43 c0 -1 12 -34 26 -72 32 -87 45 -165 35 -202
-8 -27 -8 -27 -20 17 -6 25 -18 65 -26 90 -8 25 -15 62 -15 83 0 27 -4 37 -16
37 -8 0 -12 5 -9 10 4 6 12 7 18 4 8 -5 8 -3 0 7 -16 16 -17 29 -3 29 6 0 10
-1 10 -3z m-694 -105 c26 -17 56 -94 49 -128 -13 -70 -58 -82 -118 -31 -50 43
-60 98 -27 140 21 27 70 37 96 19z m295 -113 c31 -16 42 -55 24 -88 -26 -51
-105 -104 -105 -71 0 6 -6 10 -14 10 -34 0 -23 95 15 136 24 26 49 30 80 13z
m212 -68 c6 -26 -11 -41 -45 -41 -21 0 -28 5 -28 20 0 36 64 55 73 21z m757
-31 c0 -5 -7 -7 -15 -4 -8 4 -15 8 -15 10 0 2 7 4 15 4 8 0 15 -4 15 -10z
m-1339 -88 c-7 -2 -18 1 -23 6 -8 8 -4 9 13 5 13 -4 18 -8 10 -11z m9 -16 c0
-2 -7 -6 -15 -10 -8 -3 -15 -1 -15 4 0 6 7 10 15 10 8 0 15 -2 15 -4z m1154
-261 c6 -11 15 -23 21 -27 5 -4 6 -10 2 -14 -4 -4 -2 -13 4 -21 14 -16 -4 -87
-30 -119 -30 -37 -52 -43 -126 -34 -39 5 -75 9 -82 10 -7 0 -17 9 -23 20 -9
16 -3 30 31 80 59 86 115 132 158 128 22 -2 38 -10 45 -23z m-706 -100 c-3 -3
-9 2 -12 12 -6 14 -5 15 5 6 7 -7 10 -15 7 -18z m-86 -104 c27 -30 23 -60 -9
-67 -54 -11 -63 -25 -64 -100 -1 -75 -14 -156 -31 -191 -24 -50 -97 -35 -127
26 -43 85 -33 169 24 207 14 9 25 21 25 28 0 6 22 34 48 61 56 58 101 70 134
36z m194 -52 c9 -15 -11 -33 -30 -26 -9 4 -13 13 -10 22 7 17 30 20 40 4z
m104 4 c0 -5 -5 -15 -10 -23 -8 -12 -10 -11 -10 8 0 12 5 22 10 22 6 0 10 -3
10 -7z m148 -76 c4 -19 -6 -21 -27 -8 -16 10 -5 34 12 28 7 -2 13 -11 15 -20z
m-154 2 c23 -11 24 -13 11 -49 -7 -21 -11 -40 -9 -43 3 -3 -9 -9 -25 -15 l-31
-11 0 42 c0 50 9 87 21 87 4 0 19 -5 33 -11z m-218 -45 c-3 -9 -6 -20 -6 -25
0 -5 -7 -9 -15 -9 -18 0 -20 36 -2 43 23 10 29 7 23 -9z m1348 -57 c-23 -13
-40 4 -19 20 15 10 20 10 26 1 5 -8 2 -16 -7 -21z m-1341 -15 c-20 -17 -34
-40 -38 -63 -8 -46 -20 -63 -35 -54 -30 18 15 109 65 131 43 19 44 17 8 -14z
m1512 -16 c16 -12 18 -19 10 -43 -11 -31 -43 -49 -154 -88 -73 -26 -73 -26
-109 -7 -20 10 -37 23 -40 30 -2 6 12 27 30 47 31 34 37 37 103 39 41 2 83 10
100 19 37 20 37 20 60 3z m-1094 -35 c11 -10 44 -22 72 -26 l52 -8 -65 -14
c-36 -7 -94 -12 -130 -11 -59 3 -65 5 -68 26 -3 21 0 22 52 22 43 0 56 3 56
15 0 20 7 19 31 -4z m-181 -10 c21 -40 -4 -59 -55 -43 -29 10 -31 50 -2 55 41
8 46 7 57 -12z m1460 -11 c0 -5 -9 -10 -21 -10 -11 0 -17 5 -14 10 3 6 13 10
21 10 8 0 14 -4 14 -10z m-1460 -104 c6 16 9 15 24 -14 9 -18 28 -37 41 -42
14 -5 25 -17 25 -25 0 -18 -32 -34 -37 -18 -2 6 -13 21 -24 34 -10 12 -19 27
-19 33 0 6 -5 3 -11 -7 -8 -13 -14 -15 -23 -8 -10 8 -26 4 -60 -14 -26 -14
-52 -23 -57 -20 -11 8 -12 -6 0 -23 5 -8 17 -11 34 -7 14 4 33 2 43 -3 15 -8
13 -11 -13 -16 -27 -6 -75 -1 -96 11 -4 3 -3 11 4 19 9 11 8 18 -5 32 -9 10
-16 26 -16 35 0 14 8 17 46 13 54 -4 105 6 86 18 -7 4 -12 12 -12 17 0 6 5 7
10 4 6 -3 10 -1 10 6 0 6 10 -1 22 -16 20 -26 22 -26 28 -9z m25 -76 c8 -13
-5 -13 -25 0 -13 8 -13 10 2 10 9 0 20 -4 23 -10z m24 -165 c1 -23 -2 -26 -9
-15 -5 8 -9 31 -9 50 0 29 2 31 9 15 5 -11 9 -33 9 -50z"/>
<path d="M1750 2130 c0 -5 -8 -7 -17 -4 -17 5 -17 5 0 -6 9 -6 15 -15 12 -20
-3 -5 13 -1 34 8 22 9 36 18 31 20 -5 2 -18 -2 -29 -8 -12 -6 -21 -7 -21 -1 0
5 6 12 13 14 7 3 5 6 -5 6 -10 1 -18 -3 -18 -9z"/>
<path d="M1750 1890 c0 -5 10 -10 23 -10 18 0 19 2 7 10 -19 13 -30 13 -30 0z"/>
<path d="M909 3078 c-8 -7 -21 -21 -28 -30 -10 -14 -9 -16 8 -11 24 6 44 28
39 43 -2 7 -8 6 -19 -2z"/>
<path d="M1680 3080 c-10 -6 -11 -12 -5 -19 12 -11 105 7 105 21 0 11 -81 10
-100 -2z"/>
<path d="M467 3039 c-26 -22 -52 -50 -59 -62 l-11 -22 24 20 c52 43 81 71 90
88 13 24 10 22 -44 -24z"/>
<path d="M1623 3062 c-17 -11 0 -34 20 -27 9 4 13 13 10 21 -6 16 -13 17 -30
6z"/>
<path d="M839 3013 c-13 -16 -12 -17 4 -4 9 7 17 15 17 17 0 8 -8 3 -21 -13z"/>
<path d="M1545 3019 c-10 -14 -1 -21 19 -13 9 3 13 10 10 15 -7 12 -21 11 -29
-2z"/>
<path d="M1000 2983 c-55 -49 -77 -89 -27 -47 36 30 83 84 73 84 -3 0 -24 -16
-46 -37z"/>
<path d="M1367 2993 c-11 -10 -8 -43 3 -43 12 0 31 35 23 44 -8 8 -18 8 -26
-1z"/>
<path d="M2452 2933 c23 -23 44 -40 46 -38 3 3 -2 13 -11 23 -19 21 -13 33 11
25 10 -3 6 4 -8 16 -14 11 -37 20 -52 19 l-28 -2 42 -43z"/>
<path d="M523 2868 c-53 -84 -59 -99 -29 -63 26 30 81 125 73 125 -3 0 -23
-28 -44 -62z"/>
<path d="M701 2912 c-21 -22 -50 -82 -41 -82 9 0 64 90 58 95 -1 2 -9 -4 -17
-13z"/>
<path d="M2575 2800 c10 -11 20 -20 23 -20 3 0 -3 9 -13 20 -10 11 -20 20 -23
20 -3 0 3 -9 13 -20z"/>
<path d="M706 2768 l-17 -33 20 24 c18 20 27 41 18 41 -1 0 -11 -15 -21 -32z"/>
<path d="M995 2743 c-44 -52 -44 -63 0 -14 21 23 36 43 34 45 -2 3 -18 -12
-34 -31z"/>
<path d="M586 2735 c-9 -26 -7 -32 5 -12 6 10 9 21 6 23 -2 3 -7 -2 -11 -11z"/>
<path d="M801 2692 c-17 -31 -13 -40 5 -14 9 13 14 26 11 29 -3 2 -10 -4 -16
-15z"/>
<path d="M1156 2679 c-31 -36 -34 -54 -6 -37 16 11 47 68 35 68 -2 0 -15 -14
-29 -31z"/>
<path d="M733 2688 c-20 -26 -26 -41 -15 -34 12 7 36 46 29 46 -3 0 -9 -6 -14
-12z"/>
<path d="M2711 2620 c-1 -67 9 -160 18 -160 6 0 -5 168 -13 200 -2 8 -4 -10
-5 -40z"/>
<path d="M2872 2588 c-13 -13 -16 -58 -4 -58 15 0 32 24 32 47 0 25 -10 29
-28 11z"/>
<path d="M348 2545 c-3 -11 -9 -29 -13 -40 -3 -11 1 -7 10 8 9 16 15 33 12 40
-2 6 -6 3 -9 -8z"/>
<path d="M1100 2542 c-8 -4 -17 -16 -18 -27 -2 -11 -9 -27 -16 -35 -15 -17
-65 -155 -67 -185 -3 -38 3 -90 8 -75 58 161 108 288 119 301 24 27 11 38 -26
21z"/>
<path d="M2631 2540 c-1 -8 8 -39 19 -68 11 -29 20 -65 20 -80 l-1 -27 -14 25
c-13 23 -14 18 -13 -65 0 -49 5 -93 11 -96 5 -4 13 -36 17 -70 5 -55 7 -60 14
-34 4 17 11 46 16 66 6 20 10 53 10 74 l0 38 -25 -23 c-14 -13 -25 -18 -25
-11 0 6 12 23 26 36 l27 25 -23 72 c-27 87 -58 159 -59 138z"/>
<path d="M2827 2513 c-4 -3 -7 -13 -7 -22 1 -13 3 -13 11 2 11 19 8 33 -4 20z"/>
<path d="M956 2485 c-3 -9 -6 -22 -5 -28 0 -7 5 -1 10 12 5 13 8 26 5 28 -2 2
-6 -3 -10 -12z"/>
<path d="M250 2456 c-15 -39 -12 -46 6 -13 9 16 13 31 10 34 -3 3 -10 -6 -16
-21z"/>
<path d="M391 2464 c0 -11 3 -14 6 -6 3 7 2 16 -1 19 -3 4 -6 -2 -5 -13z"/>
<path d="M446 2445 c-3 -9 -6 -24 -5 -33 0 -9 5 -4 10 12 9 32 6 48 -5 21z"/>
<path d="M97 2431 c-4 -17 -3 -21 5 -13 5 5 8 16 6 23 -3 8 -7 3 -11 -10z"/>
<path d="M772 2370 c-12 -35 -22 -71 -22 -79 0 -9 12 16 25 54 14 39 23 74 22
80 -2 5 -13 -19 -25 -55z"/>
<path d="M2910 2376 c-5 -15 -14 -25 -18 -22 -5 3 -24 -11 -43 -32 -19 -20
-25 -30 -14 -21 11 8 37 22 58 32 41 18 56 42 39 59 -8 8 -14 4 -22 -16z"/>
<path d="M662 2311 c-7 -21 -12 -45 -11 -52 0 -8 7 8 15 35 9 26 13 50 11 52
-2 2 -9 -13 -15 -35z"/>
<path d="M423 2295 c0 -22 2 -30 4 -17 2 12 2 30 0 40 -3 9 -5 -1 -4 -23z"/>
<path d="M467 2273 c-4 -3 -7 -18 -6 -32 1 -26 1 -25 10 3 9 31 7 41 -4 29z"/>
<path d="M741 2254 c0 -11 3 -14 6 -6 3 7 2 16 -1 19 -3 4 -6 -2 -5 -13z"/>
<path d="M215 2176 c-9 -41 -15 -83 -12 -93 3 -14 5 -15 9 -3 9 25 29 163 24
167 -2 3 -12 -29 -21 -71z"/>
<path d="M286 2178 c-9 -60 -13 -149 -6 -141 8 8 21 173 15 173 -2 0 -6 -15
-9 -32z"/>
<path d="M641 2144 c0 -11 3 -14 6 -6 3 7 2 16 -1 19 -3 4 -6 -2 -5 -13z"/>
<path d="M947 2114 c-10 -77 -7 -154 3 -127 15 38 23 140 12 158 -8 15 -11 9
-15 -31z"/>
<path d="M2849 2119 c-39 -42 -39 -49 1 -23 28 19 50 44 50 56 0 15 -15 5 -51
-33z"/>
<path d="M531 2093 c-5 -21 -12 -65 -16 -98 -3 -33 -8 -71 -11 -85 -5 -24 -5
-24 9 -5 8 11 18 52 22 90 4 39 9 85 11 103 5 43 -3 41 -15 -5z"/>
<path d="M347 2067 c-5 -32 -6 -61 -3 -65 13 -12 17 8 14 64 l-3 59 -8 -58z"/>
<path d="M406 2056 c-4 -21 -5 -40 -2 -43 7 -8 18 42 14 64 -3 11 -7 3 -12
-21z"/>
<path d="M870 2084 c0 -5 -7 -65 -15 -133 -8 -68 -12 -127 -9 -132 3 -5 0 -9
-5 -9 -6 0 -11 -11 -11 -25 0 -14 4 -25 9 -25 12 0 21 37 21 95 0 28 5 90 11
138 6 49 8 91 5 94 -3 4 -6 2 -6 -3z"/>
<path d="M2699 2033 c-26 -28 -28 -33 -10 -22 22 14 60 59 49 59 -2 0 -20 -17
-39 -37z"/>
<path d="M51 1994 c-1 -23 6 -55 14 -70 18 -35 18 -28 0 51 -13 58 -13 59 -14
19z"/>
<path d="M585 1935 c-7 -93 -1 -129 10 -48 3 26 7 62 9 79 3 17 1 36 -4 43 -4
8 -11 -25 -15 -74z"/>
<path d="M141 1958 c-1 -15 4 -30 9 -33 12 -7 12 12 0 40 -8 18 -9 17 -9 -7z"/>
<path d="M3480 1895 c26 -52 25 -84 -5 -141 -14 -26 -22 -50 -19 -53 5 -6 28
20 38 43 3 7 10 5 19 -6 8 -10 16 -18 18 -18 14 0 6 67 -11 105 -11 24 -20 48
-20 52 0 4 -10 19 -21 33 -20 25 -20 25 1 -15z"/>
<path d="M1005 1910 c-5 -8 -11 -61 -12 -118 l-2 -103 32 -19 c40 -25 51 -25
42 -2 -11 28 -36 143 -43 202 -5 41 -10 51 -17 40z"/>
<path d="M2752 1878 c-44 -38 -37 -45 8 -8 19 16 33 31 30 33 -3 3 -20 -8 -38
-25z"/>
<path d="M347 1858 c3 -18 10 -42 14 -53 6 -17 8 -15 8 10 1 39 -9 75 -20 75
-5 0 -6 -15 -2 -32z"/>
<path d="M3114 1845 c17 -22 53 -67 81 -100 78 -92 81 -97 61 -89 -12 5 -15 2
-10 -9 3 -9 20 -21 37 -27 18 -7 26 -14 20 -17 -18 -7 -16 -23 2 -23 18 0 75
-58 75 -76 0 -10 -6 -11 -24 -5 -13 5 -43 7 -66 4 -29 -4 -41 -3 -37 4 9 14
-15 23 -58 23 -18 0 -35 6 -38 13 -2 6 -7 10 -9 7 -3 -3 6 -30 20 -61 l25 -56
116 1 c120 1 131 -1 231 -53 19 -10 56 -19 81 -19 49 0 89 -15 89 -33 0 -18
-24 -36 -47 -34 -18 1 -20 -1 -12 -17 5 -10 14 -18 19 -18 5 0 12 -10 16 -22
4 -13 22 -44 40 -71 37 -53 68 -143 84 -239 5 -33 11 -63 13 -65 9 -9 80 85
110 147 31 63 32 69 32 195 -1 116 -3 135 -24 175 -40 78 -72 111 -129 138
-50 23 -59 24 -104 13 -72 -16 -118 -14 -134 7 -15 19 -18 52 -5 52 5 0 9 19
9 42 1 62 12 120 29 148 9 16 3 12 -16 -10 -16 -19 -38 -55 -47 -80 -19 -50
-54 -111 -54 -94 0 5 7 19 15 30 32 42 11 77 -30 50 -29 -19 -55 -21 -55 -3 0
7 -13 14 -30 15 -23 2 -30 -2 -31 -15 0 -10 -7 3 -16 30 -18 53 -21 55 -25 9
-1 -18 -4 -32 -7 -32 -2 0 -54 46 -115 103 -73 67 -101 88 -82 62z m334 -227
c3 -22 0 -26 -16 -21 -14 3 -18 11 -14 29 6 31 26 26 30 -8z m72 -71 c0 -24
-18 -39 -56 -47 -34 -8 -41 -7 -56 13 -32 40 -24 50 52 60 30 4 60 -9 60 -26z"/>
<path d="M3300 1826 c0 -2 7 -7 16 -10 8 -3 12 -2 9 4 -6 10 -25 14 -25 6z"/>
<path d="M2530 1783 c-94 -55 -176 -127 -250 -218 -30 -37 42 10 115 75 39 34
82 67 96 72 14 5 40 29 57 53 17 25 31 45 29 45 -1 0 -22 -12 -47 -27z"/>
<path d="M586 1760 c4 -25 16 -63 26 -85 10 -22 16 -32 13 -22 -2 10 -12 46
-21 80 -19 75 -27 87 -18 27z"/>
<path d="M2790 1770 c0 -17 48 -42 72 -38 22 4 21 5 -7 16 -16 7 -38 17 -47
22 -12 7 -18 7 -18 0z"/>
<path d="M3672 1661 c-77 -79 -91 -107 -23 -45 42 38 106 113 100 117 -2 1
-37 -31 -77 -72z"/>
<path d="M290 1691 c0 -6 4 -13 10 -16 6 -3 7 1 4 9 -7 18 -14 21 -14 7z"/>
<path d="M430 1667 c0 -21 7 -51 15 -67 16 -31 29 -41 19 -15 -4 8 -1 15 6 15
14 0 5 33 -21 75 l-19 30 0 -38z"/>
<path d="M773 1607 c4 -27 14 -58 23 -70 15 -20 15 -20 10 -2 -3 11 -10 39
-15 63 -13 61 -25 67 -18 9z"/>
<path d="M310 1613 c0 -21 3 -24 9 -14 5 8 7 20 4 28 -8 21 -13 15 -13 -14z"/>
<path d="M374 1610 c3 -14 6 -35 6 -47 0 -13 5 -23 11 -23 15 0 5 69 -12 84
-9 8 -10 5 -5 -14z"/>
<path d="M850 1607 c0 -22 32 -117 42 -123 17 -11 0 66 -23 101 -10 17 -19 26
-19 22z"/>
<path d="M485 1530 c16 -32 16 -32 -7 -24 -20 6 -21 5 -9 -10 9 -10 10 -16 2
-16 -6 0 -11 -7 -11 -16 0 -13 3 -14 13 -5 10 8 19 4 36 -19 12 -17 25 -30 30
-30 13 0 -42 143 -57 148 -10 3 -9 -4 3 -28z"/>
<path d="M990 1550 c0 -5 27 -38 60 -72 l59 -63 1 37 c0 32 -5 41 -37 63 -21
14 -43 25 -50 25 -7 0 -13 5 -13 10 0 6 -4 10 -10 10 -5 0 -10 -4 -10 -10z"/>
<path d="M560 1538 c0 -9 5 -20 10 -23 13 -8 13 5 0 25 -8 13 -10 13 -10 -2z"/>
<path d="M2489 1513 c-13 -16 -12 -17 4 -4 9 7 17 15 17 17 0 8 -8 3 -21 -13z"/>
<path d="M641 1495 c10 -24 112 -175 116 -171 7 6 -14 42 -64 110 -48 65 -58
77 -52 61z"/>
<path d="M400 1469 c0 -11 4 -18 10 -14 5 3 7 12 3 20 -7 21 -13 19 -13 -6z"/>
<path d="M1169 1398 c45 -121 86 -193 107 -190 11 1 77 3 148 5 84 1 131 6
133 13 2 6 -70 52 -159 102 -90 49 -184 102 -210 116 l-46 27 27 -73z"/>
<path d="M590 1446 c0 -2 10 -30 22 -62 23 -61 67 -109 119 -132 28 -12 29
-11 17 8 -7 11 -20 20 -30 20 -17 0 -88 78 -88 97 0 12 -30 73 -36 73 -2 0 -4
-2 -4 -4z"/>
<path d="M819 1413 c9 -32 69 -153 76 -153 2 0 -4 21 -15 48 -10 26 -24 65
-32 86 -16 47 -42 63 -29 19z"/>
<path d="M470 1401 c0 -5 5 -13 10 -16 6 -3 10 -2 10 4 0 5 -4 13 -10 16 -5 3
-10 2 -10 -4z"/>
<path d="M1106 1338 c14 -35 29 -73 34 -84 7 -18 38 -40 45 -32 6 7 -53 139
-70 158 -32 35 -34 22 -9 -42z"/>
<path d="M3203 1374 c-3 -8 -3 -64 0 -122 7 -148 19 -172 50 -106 17 35 17 35
-5 32 -18 -2 -24 4 -31 35 -14 57 4 90 44 83 37 -5 56 -20 76 -59 12 -25 13
-31 2 -38 -8 -4 -23 -15 -34 -24 -19 -15 -18 -15 12 0 18 8 39 15 47 15 8 0
28 13 44 30 28 28 116 60 164 60 24 0 23 12 -5 36 -69 59 -163 84 -238 63 -62
-17 -78 -18 -90 -2 -15 17 -28 17 -36 -3z"/>
<path d="M930 1365 c0 -47 73 -205 87 -191 3 2 -7 26 -20 53 -13 26 -32 72
-41 101 -18 53 -26 65 -26 37z"/>
<path d="M1061 1247 c7 -15 16 -27 21 -27 14 0 9 16 -13 36 -21 19 -21 19 -8
-9z"/>
<path d="M780 1242 c6 -13 14 -21 18 -18 3 4 -2 14 -12 24 -18 16 -18 16 -6
-6z"/>
<path d="M868 1190 c23 -23 47 -23 27 0 -8 9 -22 17 -30 17 -12 0 -12 -3 3
-17z"/>
<path d="M1185 1200 c3 -5 8 -10 11 -10 2 0 4 5 4 10 0 6 -5 10 -11 10 -5 0
-7 -4 -4 -10z"/>
<path d="M3181 1164 c0 -11 3 -14 6 -6 3 7 2 16 -1 19 -3 4 -6 -2 -5 -13z"/>
<path d="M1210 1158 c0 -17 66 -75 75 -66 3 2 -13 22 -35 43 -28 28 -40 34
-40 23z"/>
<path d="M1030 1115 c0 -7 54 -56 75 -67 11 -6 2 8 -20 31 -35 37 -55 50 -55
36z"/>
<path d="M1140 1102 c0 -13 58 -77 64 -71 7 7 -35 67 -51 73 -7 3 -13 2 -13
-2z"/>
<path d="M1290 1000 l-65 -7 60 -1 c33 0 69 3 80 8 22 9 19 9 -75 0z"/>
<path d="M1170 986 c0 -10 28 -13 41 -5 10 6 7 9 -13 9 -16 0 -28 -2 -28 -4z"/>
<path d="M1320 923 c-8 -2 -22 -7 -30 -10 -10 -3 -4 -9 19 -19 38 -16 36 -17
45 14 7 22 -1 26 -34 15z"/>
</g>
</svg>
